<svg xmlns="http://www.w3.org/2000/svg" viewBox="0 0 64 64" id="phone"><path fill="#546e7a" d="M48.648 53.335a1.5 1.5 0 0 1-.814-2.761A12.083 12.083 0 0 0 51.362 47c.863-1.311 1.159-2.372.882-3.156-.563-1.594-3.594-2.745-6.171-3.57a6.477 6.477 0 0 0-6.586 1.593l-.976.977a1.5 1.5 0 0 1-.627.376c-.67.2-4.347.864-11.155-5.945a1.5 1.5 0 1 1 2.121-2.125c4.466 4.467 7.08 5.095 7.94 5.168l.576-.576a9.478 9.478 0 0 1 9.621-2.33c3.365 1.078 7.041 2.474 8.085 5.428.607 1.715.2 3.668-1.2 5.8a15.1 15.1 0 0 1-4.411 4.46 1.5 1.5 0 0 1-.813.235zm-7.207 2.012c-6.866 0-14.749-3.97-21.783-11.005a1.5 1.5 0 1 1 2.121-2.121c6.638 6.639 14.27 10.412 20.39 10.108a1.48 1.48 0 0 1 1.574 1.422 1.5 1.5 0 0 1-1.422 1.574c-.291.014-.585.022-.88.022z"></path><path fill="#546e7a" d="M20.718 44.782a1.494 1.494 0 0 1-1.06-.44C12.09 36.775 8.008 27.989 8.739 20.84a14.232 14.232 0 0 1 6.617-10.71c2.137-1.4 4.09-1.807 5.8-1.2 2.954 1.044 4.351 4.72 5.428 8.085a9.471 9.471 0 0 1-2.33 9.621l-.591.592c.072.773.655 3.4 5.183 7.924a1.5 1.5 0 0 1-2.121 2.121c-6.808-6.807-6.146-10.486-5.945-11.154a1.484 1.484 0 0 1 .376-.627l.977-.977a6.482 6.482 0 0 0 1.593-6.585c-.825-2.578-1.976-5.609-3.569-6.172-.785-.277-1.847.019-3.157.881a11.18 11.18 0 0 0-5.28 8.509c-.641 6.26 3.118 14.139 10.055 21.075a1.5 1.5 0 0 1-1.061 2.561Z"></path></svg>